<?xml version="1.0" encoding="UTF-8" standalone="no"?>
<svg
   xmlns:dc="http://purl.org/dc/elements/1.1/"
   xmlns:cc="http://creativecommons.org/ns#"
   xmlns:rdf="http://www.w3.org/1999/02/22-rdf-syntax-ns#"
   xmlns:svg="http://www.w3.org/2000/svg"
   xmlns="http://www.w3.org/2000/svg"
   viewBox="0 0 741.8916 282.17892"
   height="282.17892"
   width="741.8916"
   xml:space="preserve"
   id="svg2"
   version="1.1"><metadata
     id="metadata8"><rdf:RDF><cc:Work
         rdf:about=""><dc:format>image/svg+xml</dc:format><dc:type
           rdf:resource="http://purl.org/dc/dcmitype/StillImage" /></cc:Work></rdf:RDF></metadata><defs
     id="defs6" /><g
     transform="matrix(1.3333333,0,0,-1.3333333,1.3333333,280.8456)"
     id="g10"><path
       id="path12"
       style="fill:#006db6;fill-opacity:1;fill-rule:evenodd;stroke:none"
       d="m 119.9931,171.7036 c 9.6355,-36.2719 22.5848,-67.4944 51.4998,-74.3885 -10.0102,-13.9235 -11.8034,-29.5906 -3.6799,-47.3613 -42.8607,18.3858 -57.1688,60.3148 -47.8199,121.7498" /><path
       id="path14"
       style="fill:#0052a1;fill-opacity:1;fill-rule:evenodd;stroke:none"
       d="m 111.9274,141.2147 c -0.5394,-43.7083 15.8735,-73.1013 42.802,-93.615 -17.6247,0.0575 -28.0006,-6.7712 -33.4176,-18.311 -17.6959,22.1213 -20.3757,59.8972 -9.3844,111.926" /><path
       id="path16"
       style="fill:#205098;fill-opacity:1;fill-rule:evenodd;stroke:none"
       d="M 110.9761,173.2082 C 80.7055,126.3594 63.5332,80.8203 56.812,36.326 c 13.9022,11.3581 28.4862,21.8089 44.7443,30.0257 -3.5779,36.0669 1.2186,71.5751 9.4198,106.8565" /><path
       id="path18"
       style="fill:#1c3c91;fill-opacity:1;fill-rule:evenodd;stroke:none"
       d="M 102.8993,177.2748 C 67.4833,144.3699 40.7815,108.3526 24.5968,68.5786 l 33.4848,11.8485 c 11.5968,33.3967 27.0394,65.5118 44.8177,96.8477" /><path
       id="path20"
       style="fill:#1b4295;fill-opacity:1;fill-rule:evenodd;stroke:none"
       d="m 11.6033,102.6641 31.3212,11.5395 c 13.8055,21.6706 30.4276,41.9329 48.63,61.4055 C 60.5767,156.7032 33.789,132.5599 11.6033,102.6641" /><path
       id="path22"
       style="fill:#004082;fill-opacity:1;fill-rule:nonzero;stroke:none"
       d="m 191.3723,114.213 v 43.7839 h 26.9629 v -9.0289 h -16.8208 v -7.9157 h 14.4091 v -8.9672 h -14.4091 v -8.6575 h 17.0682 v -9.2146 z m 44.0929,35.8064 h -1.7212 v -12.121 h 2.2057 c 2.6385,0 4.6485,0.5358 6.04,1.5976 1.3913,1.0616 2.0818,2.5974 2.0818,4.5865 0,2.0925 -0.6698,3.5972 -2.02,4.5351 -1.3504,0.938 -3.5455,1.4018 -6.5863,1.4018 z M 223.6017,114.213 v 43.7839 h 11.2555 c 3.6077,0 6.4006,-0.237 8.39,-0.7112 1.9891,-0.474 3.7411,-1.2574 5.277,-2.3706 1.6285,-1.1648 2.8961,-2.6076 3.793,-4.3288 0.8966,-1.7212 1.3399,-3.5354 1.3399,-5.4422 0,-2.7621 -0.701,-5.1741 -2.1027,-7.2457 -1.4017,-2.0715 -3.422,-3.6901 -6.0605,-4.8648 l 13.358,-18.8206 h -11.9356 l -11.688,17.1921 H 233.744 V 114.213 Z m 68.7991,29.9313 c -1.8967,1.9482 -3.8135,3.3911 -5.7512,4.3395 -1.9483,0.9377 -3.9889,1.4117 -6.1226,1.4117 -3.7,0 -6.7303,-1.2779 -9.0805,-3.8339 -2.3601,-2.5562 -3.5351,-5.8442 -3.5351,-9.8433 0,-4.0093 1.1648,-7.2561 3.5045,-9.7401 2.3292,-2.484 5.37,-3.7312 9.1216,-3.7312 2.2161,0 4.4215,0.4637 6.6274,1.3915 2.2057,0.9278 4.4011,2.3193 6.5965,4.1743 l -0.6701,-11.626 c -1.876,-1.268 -3.9166,-2.2368 -6.143,-2.8965 -2.2263,-0.6701 -4.5348,-0.9997 -6.9363,-0.9997 -2.577,0 -5.0403,0.4019 -7.4109,1.2058 -2.3602,0.8042 -4.5454,1.9999 -6.5347,3.5663 -2.8239,2.2161 -4.9782,4.9164 -6.4832,8.1116 -1.4941,3.1847 -2.2467,6.6685 -2.2467,10.4306 0,3.2468 0.5564,6.2873 1.6594,9.1217 1.1129,2.8343 2.721,5.3492 4.8339,7.5242 2.1337,2.1748 4.597,3.8342 7.4004,4.9986 2.793,1.1546 5.741,1.7317 8.8436,1.7317 2.4633,0 4.803,-0.3401 7.0392,-1.0306 2.2369,-0.6804 4.3705,-1.7212 6.401,-3.1125 z m 5.3283,-29.9313 v 43.7839 h 10.4516 V 114.213 Z m 1.6081,53.5756 c 0,0.9998 0.3503,1.8655 1.0513,2.5665 0.711,0.7112 1.5769,1.0616 2.5974,1.0616 1.0304,0 1.8859,-0.3504 2.5974,-1.0616 0.7007,-0.701 1.0511,-1.5667 1.0511,-2.5665 0,-1.01 -0.3609,-1.8759 -1.0718,-2.5974 -0.7112,-0.7112 -1.5667,-1.0717 -2.5767,-1.0717 -1.0205,0 -1.8864,0.3503 -2.5974,1.0613 -0.701,0.701 -1.0513,1.5769 -1.0513,2.6078 z m 24.5715,-53.5756 v 20.7788 l -15.6461,23.0051 h 12.6159 l 9.1423,-13.8628 10.0803,13.8628 h 11.0798 L 334.2983,135.4144 V 114.213 Z m 26.9317,0 v 43.7839 h 26.9632 v -9.0289 h -16.8208 v -7.9157 h 14.409 v -8.9672 h -14.409 v -8.6575 h 17.0682 v -9.2146 z m 30.2511,12.3684 c 2.69,-1.6492 4.9782,-2.7933 6.8643,-3.4631 1.8757,-0.6599 3.7103,-0.9896 5.5041,-0.9896 1.8037,0 3.257,0.402 4.3597,1.1954 1.0924,0.7937 1.6387,1.8142 1.6387,3.0614 0,1.783 -1.948,3.8033 -5.8541,6.0296 -0.6291,0.3606 -1.1135,0.6491 -1.4534,0.8453 l -2.9582,1.6696 c -2.8755,1.6285 -5.0091,3.4736 -6.3901,5.5244 -1.3916,2.0515 -2.0821,4.3807 -2.0821,6.9778 0,3.5252 1.3295,6.4111 3.9886,8.6683 2.649,2.2573 6.0812,3.3806 10.2864,3.3806 1.5565,0 3.2363,-0.1856 5.04,-0.5462 1.8142,-0.3606 3.8239,-0.9275 6.0401,-1.6903 v -10.2555 c -2.1127,1.3193 -4.1125,2.3398 -6.0089,3.0612 -1.8967,0.7214 -3.5045,1.0822 -4.8342,1.0822 -1.4738,0 -2.628,-0.3194 -3.4733,-0.9482 -0.8453,-0.6287 -1.2677,-1.4947 -1.2677,-2.5766 0,-0.7628 0.2472,-1.4741 0.7523,-2.1337 0.5052,-0.6698 1.2578,-1.2676 2.2675,-1.8142 l 5.133,-2.8343 c 4.2981,-2.3808 7.1841,-4.5763 8.668,-6.586 1.4842,-2.0203 2.2266,-4.4011 2.2266,-7.1635 0,-4.267 -1.4536,-7.7198 -4.3602,-10.3481 -2.9169,-2.6283 -6.7717,-3.9373 -11.5849,-3.9373 -1.6285,0 -3.4013,0.1751 -5.3184,0.5153 -1.9069,0.3401 -4.0198,0.8762 -6.3076,1.5976 z" /><path
       id="path24"
       style="fill:#004082;fill-opacity:1;fill-rule:nonzero;stroke:none"
       d="m 192.6692,62.7182 v 34.6315 h -13.9145 v 9.1525 h 38.2182 V 97.3497 H 203.1205 V 62.7182 Z m 25.5183,0 v 43.784 h 26.9631 v -9.0289 h -16.821 v -7.9158 h 14.409 v -8.9668 h -14.409 v -8.6579 h 17.0682 v -9.2146 z m 31.3724,0 v 43.784 h 10.3278 V 87.4449 l 14.4606,19.0573 H 286.789 L 270.2772,85.6721 288.0876,62.7182 H 275.472 L 259.8877,82.889 V 62.7182 Z m 38.3199,0 v 45.2064 h 0.9998 l 27.2619,-25.5509 v 24.1285 h 9.6472 V 61.0486 h -0.9071 L 297.527,86.5996 V 62.7182 Z m 52.1513,21.892 c 0,-3.8032 1.1134,-6.9985 3.3397,-9.5649 2.2261,-2.5662 4.9678,-3.8546 8.2248,-3.8546 3.2777,0 6.0298,1.2779 8.2457,3.8342 2.2161,2.5664 3.3188,5.7614 3.3188,9.5853 0,3.8446 -1.1027,7.0603 -3.3188,9.6267 -2.2159,2.5665 -4.968,3.8549 -8.2457,3.8549 -3.257,0 -5.9987,-1.2884 -8.2248,-3.8549 -2.2263,-2.5664 -3.3397,-5.7821 -3.3397,-9.6267 z m -10.7604,0 c 0,3.2468 0.5568,6.277 1.6801,9.1012 1.1132,2.8344 2.7624,5.3595 4.9371,7.596 2.0512,2.1336 4.4422,3.7723 7.1632,4.9062 2.711,1.1441 5.5661,1.711 8.5445,1.711 2.9789,0 5.8339,-0.5771 8.5651,-1.7212 2.7315,-1.1441 5.1534,-2.8035 7.2666,-4.9578 2.1334,-2.154 3.7517,-4.6378 4.8442,-7.4724 1.1029,-2.8242 1.6492,-5.885 1.6492,-9.163 0,-2.7417 -0.3816,-5.3184 -1.1441,-7.7301 -0.773,-2.4117 -1.9069,-4.6176 -3.422,-6.6172 -2.1336,-2.8343 -4.7514,-5.04 -7.8641,-6.6067 -3.1131,-1.5769 -6.4112,-2.3604 -9.8949,-2.3604 -2.958,0 -5.7924,0.5774 -8.5034,1.7212 -2.7105,1.1441 -5.112,2.8038 -7.2043,4.9578 -2.1747,2.2263 -3.8239,4.7517 -4.9371,7.5654 -1.1233,2.8035 -1.6801,5.8337 -1.6801,9.07 z m 60.0055,13.8526 h -1.4221 V 86.7747 h 1.8964 c 2.6384,0 4.6485,0.5049 6.0397,1.5254 1.3916,1.0207 2.0821,2.484 2.0821,4.3908 0,1.9996 -0.68,3.4529 -2.0509,4.3807 -1.3708,0.9275 -3.556,1.3912 -6.5452,1.3912 z M 377.4025,62.7182 v 43.784 h 11.2657 c 3.4631,0 6.2152,-0.2472 8.2457,-0.7523 2.0304,-0.5052 3.8341,-1.3502 5.411,-2.5356 1.6285,-1.1852 2.8962,-2.6694 3.7931,-4.4524 0.8966,-1.7833 1.3399,-3.6695 1.3399,-5.6585 0,-4.432 -1.5772,-7.9365 -4.731,-10.5339 -3.1436,-2.5973 -7.4211,-3.8962 -12.8217,-3.8962 -0.5567,0 -0.9793,0 -1.2679,0.0102 -0.2784,0.0105 -0.5462,0.0312 -0.7832,0.0516 V 62.7182 Z m 38.0619,13.9145 h 11.5027 l -5.6789,13.7083 z m -16.388,-13.9145 22.3353,45.1446 h 0.6597 L 443.9117,62.7182 H 432.976 l -2.7726,6.3698 h -17.7693 l -2.8343,-6.3698 z m 56.1714,35.8064 h -1.7212 V 86.4037 h 2.2053 c 2.6388,0 4.6489,0.5357 6.0401,1.5976 1.3915,1.0616 2.082,2.5974 2.082,4.5864 0,2.0926 -0.6701,3.5972 -2.0202,4.5352 -1.3501,0.938 -3.5456,1.4017 -6.586,1.4017 z M 443.3842,62.7182 v 43.784 h 11.2553 c 3.6076,0 6.4006,-0.237 8.3899,-0.711 1.9891,-0.4742 3.7415,-1.2574 5.2773,-2.3709 1.6282,-1.1644 2.8962,-2.6075 3.7928,-4.3287 0.8966,-1.7212 1.3399,-3.5351 1.3399,-5.442 0,-2.7624 -0.7007,-5.1744 -2.1027,-7.2459 -1.4018,-2.0716 -3.4217,-3.6899 -6.0602,-4.8648 l 13.3577,-18.8207 h -11.9356 l -11.6878,17.1922 h -1.4842 V 62.7182 Z m 35.5984,0 v 43.784 h 10.3277 V 87.4449 l 14.4607,19.0573 h 12.4407 L 499.6998,85.6721 517.5102,62.7182 H 504.8946 L 489.3103,82.889 V 62.7182 Z" /><path
       id="path26"
       style="fill:#004082;fill-opacity:1;fill-rule:nonzero;stroke:none"
       d="m 193.4719,52.0872 h 2.8602 c 1.1523,0 2.0384,-0.1349 2.6549,-0.4076 0.62,-0.273 1.1084,-0.6942 1.4655,-1.2603 0.3606,-0.5627 0.5392,-1.1926 0.5392,-1.88 0,-0.6468 -0.1585,-1.2327 -0.4717,-1.7617 -0.3132,-0.5289 -0.775,-0.957 -1.3813,-1.2869 0.7546,-0.2563 1.3342,-0.5562 1.7385,-0.9031 0.4076,-0.3436 0.7208,-0.7614 0.9465,-1.2532 0.2256,-0.4887 0.3401,-1.0208 0.3401,-1.5937 0,-1.1656 -0.4241,-2.1526 -1.2764,-2.9579 -0.8524,-0.8051 -1.9948,-1.2096 -3.43,-1.2096 h -3.9855 z m 1.4151,-1.4151 v -4.6494 h 0.832 c 1.0108,0 1.7555,0.0944 2.2303,0.2798 0.475,0.1888 0.8523,0.485 1.1287,0.8895 0.2798,0.4043 0.4178,0.8555 0.4178,1.3473 0,0.6639 -0.2324,1.1861 -0.6973,1.5667 -0.4685,0.3773 -1.2095,0.5661 -2.2272,0.5661 z m 0,-6.1047 v -5.5791 h 1.8023 c 1.0613,0 1.8396,0.1046 2.3349,0.3101 0.4952,0.2089 0.8929,0.5357 1.1925,0.9771 0.2999,0.4414 0.4516,0.9196 0.4516,1.4315 0,0.6469 -0.2124,1.2129 -0.6333,1.6948 -0.4212,0.4782 -1.0006,0.8085 -1.7385,0.9871 -0.4955,0.1179 -1.3578,0.1785 -2.5875,0.1785 z m 9.7466,3.7395 h 1.3746 v -5.0097 c 0,-1.2228 0.0671,-2.0619 0.1987,-2.5231 0.1953,-0.6571 0.576,-1.1758 1.1318,-1.5565 0.5559,-0.381 1.2229,-0.5729 1.9945,-0.5729 0.7716,0 1.4253,0.1854 1.9641,0.5559 0.5358,0.3739 0.9097,0.8592 1.1118,1.4655 0.1383,0.4142 0.2089,1.2903 0.2089,2.6311 v 5.0097 h 1.415 v -5.2622 c 0,-1.4792 -0.172,-2.5909 -0.519,-3.3387 -0.3433,-0.7514 -0.8657,-1.3377 -1.5596,-1.7586 -0.6939,-0.4246 -1.5633,-0.6369 -2.611,-0.6369 -1.048,0 -1.9205,0.2123 -2.6212,0.6369 -0.7007,0.4209 -1.2263,1.014 -1.5698,1.7719 -0.347,0.7583 -0.5188,1.9001 -0.5188,3.4229 z m 2.7185,4.2452 c 0.3169,0 0.583,-0.1112 0.8087,-0.3337 0.2222,-0.2256 0.3336,-0.4918 0.3336,-0.8084 0,-0.3135 -0.1114,-0.5831 -0.3336,-0.8087 -0.2257,-0.2223 -0.4918,-0.3337 -0.8087,-0.3337 -0.3133,0 -0.5828,0.1114 -0.8082,0.3337 -0.2225,0.2256 -0.3336,0.4952 -0.3336,0.8087 0,0.3166 0.1111,0.5828 0.3336,0.8084 0.2254,0.2225 0.4949,0.3337 0.8082,0.3337 z m 4.0229,0 c 0.3166,0 0.5828,-0.1112 0.8084,-0.3337 0.2226,-0.2256 0.3337,-0.4918 0.3337,-0.8084 0,-0.3135 -0.1111,-0.5831 -0.3337,-0.8087 -0.2256,-0.2223 -0.4918,-0.3337 -0.8084,-0.3337 -0.3135,0 -0.5831,0.1114 -0.8087,0.3337 -0.2223,0.2256 -0.3337,0.4952 -0.3337,0.8087 0,0.3166 0.1114,0.5828 0.3337,0.8084 0.2256,0.2225 0.4952,0.3337 0.8087,0.3337 z m 4.5748,-4.2452 h 1.4355 l 3.7023,-8.2304 3.5983,8.2304 h 1.4721 l -6.4078,-14.6551 h -1.4723 l 2.1022,4.8041 z m 11.8086,0 h 1.3745 v -5.0097 c 0,-1.2228 0.0675,-2.0619 0.1987,-2.5231 0.1956,-0.6571 0.576,-1.1758 1.1319,-1.5565 0.5559,-0.381 1.2229,-0.5729 1.9945,-0.5729 0.7715,0 1.4252,0.1854 1.9641,0.5559 0.5357,0.3739 0.9099,0.8592 1.112,1.4655 0.1381,0.4142 0.2089,1.2903 0.2089,2.6311 v 5.0097 h 1.4148 v -5.2622 c 0,-1.4792 -0.1718,-2.5909 -0.519,-3.3387 -0.3433,-0.7514 -0.8654,-1.3377 -1.5597,-1.7586 -0.6939,-0.4246 -1.5633,-0.6369 -2.6109,-0.6369 -1.048,0 -1.9205,0.2123 -2.6212,0.6369 -0.7008,0.4209 -1.2263,1.014 -1.5699,1.7719 -0.3469,0.7583 -0.5187,1.9001 -0.5187,3.4229 z m 2.7187,4.2452 c 0.3166,0 0.5828,-0.1112 0.8084,-0.3337 0.2223,-0.2256 0.3337,-0.4918 0.3337,-0.8084 0,-0.3135 -0.1114,-0.5831 -0.3337,-0.8087 -0.2256,-0.2223 -0.4918,-0.3337 -0.8084,-0.3337 -0.3135,0 -0.5831,0.1114 -0.8084,0.3337 -0.2226,0.2256 -0.3337,0.4952 -0.3337,0.8087 0,0.3166 0.1111,0.5828 0.3337,0.8084 0.2253,0.2225 0.4949,0.3337 0.8084,0.3337 z m 4.0226,0 c 0.3167,0 0.5829,-0.1112 0.8085,-0.3337 0.2225,-0.2256 0.3336,-0.4918 0.3336,-0.8084 0,-0.3135 -0.1111,-0.5831 -0.3336,-0.8087 -0.2256,-0.2223 -0.4918,-0.3337 -0.8085,-0.3337 -0.3135,0 -0.5828,0.1114 -0.8087,0.3337 -0.2222,0.2256 -0.3333,0.4952 -0.3333,0.8087 0,0.3166 0.1111,0.5828 0.3333,0.8084 0.2259,0.2225 0.4952,0.3337 0.8087,0.3337 z m 4.5752,-4.2452 h 1.4351 l 3.7024,-8.2304 3.5983,8.2304 h 1.472 L 242.875,33.6518 h -1.4723 l 2.1022,4.8041 z m 21.0526,-7.1759 1.1659,-0.6131 c -0.3841,-0.7444 -0.8255,-1.3476 -1.3275,-1.8057 -0.502,-0.455 -1.0644,-0.8053 -1.6911,-1.0446 -0.6302,-0.2392 -1.3377,-0.3571 -2.1294,-0.3571 -1.7586,0 -3.1297,0.5728 -4.1202,1.7183 -0.9904,1.1455 -1.4859,2.4389 -1.4859,3.8809 0,1.3578 0.4212,2.5708 1.2603,3.6321 1.0613,1.3507 2.486,2.0279 4.2684,2.0279 1.836,0 3.3049,-0.694 4.3999,-2.0784 0.7781,-0.9771 1.1758,-2.1968 1.1892,-3.6624 h -9.7027 c 0.0269,-1.2432 0.428,-2.2603 1.1993,-3.0523 0.775,-0.7948 1.7317,-1.1925 2.867,-1.1925 0.5493,0 1.0851,0.0944 1.6038,0.2829 0.5187,0.1887 0.9601,0.4382 1.3241,0.7514 0.3639,0.3133 0.7577,0.8153 1.1789,1.5126 z m 0.0136,2.8908 c -0.1854,0.7375 -0.455,1.3237 -0.8084,1.7651 -0.3572,0.4414 -0.8255,0.7951 -1.4083,1.0647 -0.5828,0.2696 -1.1962,0.4045 -1.8363,0.4045 -1.0613,0 -1.9709,-0.337 -2.7323,-1.0142 -0.559,-0.4953 -0.9768,-1.2331 -1.2631,-2.2201 z m 4.0598,4.2851 h 1.3745 v -1.9236 c 0.5556,0.7345 1.169,1.2838 1.8394,1.6441 0.6738,0.3603 1.4049,0.5423 2.1966,0.5423 0.8053,0 1.5193,-0.2021 2.1427,-0.6098 0.6233,-0.4076 1.0848,-0.9567 1.3813,-1.6472 0.2962,-0.6874 0.4445,-1.762 0.4445,-3.221 v -5.5185 h -1.3743 v 5.1143 c 0,1.2331 -0.0538,2.0585 -0.1584,2.4729 -0.1684,0.7076 -0.4782,1.2399 -0.9332,1.6002 -0.4549,0.3572 -1.0477,0.5357 -1.779,0.5357 -0.8388,0 -1.59,-0.276 -2.2504,-0.8288 -0.6636,-0.5491 -1.1016,-1.2331 -1.3105,-2.0483 -0.1312,-0.5324 -0.1987,-1.5027 -0.1987,-2.9143 v -3.9317 h -1.3745 z m 16.7102,2.3652 v 1.4151 h 7.9441 v -1.4151 h -3.2343 V 37.5732 h -1.4757 v 13.0989 z m 9.6387,-2.3652 h 1.3745 v -5.0097 c 0,-1.2228 0.0674,-2.0619 0.199,-2.5231 0.1953,-0.6571 0.5757,-1.1758 1.1318,-1.5565 0.5559,-0.381 1.2229,-0.5729 1.9945,-0.5729 0.7716,0 1.425,0.1854 1.9641,0.5559 0.5358,0.3739 0.9097,0.8592 1.1118,1.4655 0.1383,0.4142 0.2089,1.2903 0.2089,2.6311 v 5.0097 h 1.4148 v -5.2622 c 0,-1.4792 -0.1718,-2.5909 -0.5188,-3.3387 -0.3435,-0.7514 -0.8657,-1.3377 -1.5596,-1.7586 -0.6942,-0.4246 -1.5633,-0.6369 -2.6113,-0.6369 -1.0477,0 -1.9202,0.2123 -2.6209,0.6369 -0.7007,0.4209 -1.2263,1.014 -1.5698,1.7719 -0.3473,0.7583 -0.519,1.9001 -0.519,3.4229 z m 2.7187,4.2452 c 0.3166,0 0.5828,-0.1112 0.8087,-0.3337 0.2222,-0.2256 0.3334,-0.4918 0.3334,-0.8084 0,-0.3135 -0.1112,-0.5831 -0.3334,-0.8087 -0.2259,-0.2223 -0.4921,-0.3337 -0.8087,-0.3337 -0.3133,0 -0.5828,0.1114 -0.8085,0.3337 -0.2222,0.2256 -0.3333,0.4952 -0.3333,0.8087 0,0.3166 0.1111,0.5828 0.3333,0.8084 0.2257,0.2225 0.4952,0.3337 0.8085,0.3337 z m 4.0226,0 c 0.3169,0 0.5831,-0.1112 0.8087,-0.3337 0.2223,-0.2256 0.3337,-0.4918 0.3337,-0.8084 0,-0.3135 -0.1114,-0.5831 -0.3337,-0.8087 -0.2256,-0.2223 -0.4918,-0.3337 -0.8087,-0.3337 -0.3132,0 -0.5828,0.1114 -0.8084,0.3337 -0.2225,0.2256 -0.3337,0.4952 -0.3337,0.8087 0,0.3166 0.1112,0.5828 0.3337,0.8084 0.2256,0.2225 0.4952,0.3337 0.8084,0.3337 z m 5.2019,-4.2452 h 1.415 v -1.5698 c 0.421,0.6199 0.8657,1.078 1.334,1.3813 0.4683,0.2996 0.9567,0.4513 1.4621,0.4513 0.3841,0 0.7917,-0.1214 1.2263,-0.3637 l -0.7209,-1.1588 c -0.2897,0.1244 -0.5323,0.1885 -0.731,0.1885 -0.4618,0 -0.9065,-0.1885 -1.3343,-0.5661 -0.4277,-0.3773 -0.7546,-0.9669 -0.9802,-1.762 -0.1718,-0.6097 -0.256,-1.8462 -0.256,-3.706 v -3.6284 h -1.415 z m 6.6067,4.144 h 1.3745 v -8.4833 l 5.0131,4.3393 h 2.0012 l -5.9094,-5.114 6.2527,-5.6197 h -1.957 l -5.4006,4.8549 v -4.8549 h -1.3745 z m 10.6291,0.2627 c 0.3132,0 0.5794,-0.1111 0.8019,-0.3367 0.2222,-0.2225 0.3333,-0.4952 0.3333,-0.8087 0,-0.3099 -0.1111,-0.5794 -0.3333,-0.8017 -0.2225,-0.2259 -0.4887,-0.337 -0.8019,-0.337 -0.3102,0 -0.5729,0.1111 -0.7952,0.337 -0.2225,0.2223 -0.3336,0.4918 -0.3336,0.8017 0,0.3135 0.1111,0.5862 0.3336,0.8087 0.2223,0.2256 0.485,0.3367 0.7952,0.3367 z m -0.684,-4.4067 h 1.3745 V 37.5732 h -1.3745 z m 3.096,0 h 1.4351 l 3.7027,-8.2304 3.5983,8.2304 h 1.472 l -6.408,-14.6551 h -1.472 l 2.1021,4.8041 z m 21.0529,-7.1759 1.1656,-0.6131 c -0.3841,-0.7444 -0.8255,-1.3476 -1.3275,-1.8057 -0.5017,-0.455 -1.0644,-0.8053 -1.6911,-1.0446 -0.6299,-0.2392 -1.3374,-0.3571 -2.1291,-0.3571 -1.7587,0 -3.1301,0.5728 -4.1202,1.7183 -0.9907,1.1455 -1.4859,2.4389 -1.4859,3.8809 0,1.3578 0.4212,2.5708 1.26,3.6321 1.0613,1.3507 2.4862,2.0279 4.2684,2.0279 1.8363,0 3.3052,-0.694 4.3999,-2.0784 0.7784,-0.9771 1.1758,-2.1968 1.1894,-3.6624 h -9.7027 c 0.027,-1.2432 0.4278,-2.2603 1.1991,-3.0523 0.775,-0.7948 1.732,-1.1925 2.8672,-1.1925 0.5491,0 1.0849,0.0944 1.6039,0.2829 0.5187,0.1887 0.9601,0.4382 1.324,0.7514 0.3637,0.3133 0.7577,0.8153 1.179,1.5126 z m 0.0133,2.8908 c -0.1851,0.7375 -0.4547,1.3237 -0.8084,1.7651 -0.3569,0.4414 -0.8252,0.7951 -1.4083,1.0647 -0.5828,0.2696 -1.1959,0.4045 -1.836,0.4045 -1.0613,0 -1.9709,-0.337 -2.7323,-1.0142 -0.5593,-0.4953 -0.9768,-1.2331 -1.2634,-2.2201 z m 5.9431,3.0118 -0.7546,0.4345 c 0.2461,0.502 0.4145,0.8927 0.4986,1.1758 0.0876,0.2829 0.1483,0.6503 0.1888,1.0982 h -0.866 v 2.7088 h 1.7788 v -1.698 c 0,-0.849 -0.0573,-1.5128 -0.1718,-1.9978 -0.1145,-0.4819 -0.3404,-1.0579 -0.6738,-1.7215 z m 5.2118,1.2733 h 1.3748 v -1.9236 c 0.5556,0.7345 1.1687,1.2838 1.8391,1.6441 0.6741,0.3603 1.4051,0.5423 2.1969,0.5423 0.805,0 1.5193,-0.2021 2.1427,-0.6098 0.6233,-0.4076 1.0845,-0.9567 1.381,-1.6472 0.2965,-0.6874 0.4448,-1.762 0.4448,-3.221 v -5.5185 h -1.3743 v 5.1143 c 0,1.2331 -0.0541,2.0585 -0.1584,2.4729 -0.1684,0.7076 -0.4785,1.2399 -0.9332,1.6002 -0.455,0.3572 -1.048,0.5357 -1.779,0.5357 -0.8388,0 -1.5903,-0.276 -2.2504,-0.8288 -0.6639,-0.5491 -1.1016,-1.2331 -1.3105,-2.0483 -0.1315,-0.5324 -0.1987,-1.5027 -0.1987,-2.9143 v -3.9317 h -1.3748 z m 12.8092,4.4067 c 0.3132,0 0.5794,-0.1111 0.8016,-0.3367 0.2225,-0.2225 0.3337,-0.4952 0.3337,-0.8087 0,-0.3099 -0.1112,-0.5794 -0.3337,-0.8017 -0.2222,-0.2259 -0.4884,-0.337 -0.8016,-0.337 -0.3101,0 -0.5729,0.1111 -0.7951,0.337 -0.2226,0.2223 -0.3337,0.4918 -0.3337,0.8017 0,0.3135 0.1111,0.5862 0.3337,0.8087 0.2222,0.2256 0.485,0.3367 0.7951,0.3367 z m -0.684,-4.4067 h 1.3745 V 37.5732 h -1.3745 z m 4.2483,0 h 1.3745 v -1.9236 c 0.5556,0.7345 1.169,1.2838 1.8394,1.6441 0.6738,0.3603 1.4048,0.5423 2.1966,0.5423 0.8053,0 1.5193,-0.2021 2.1427,-0.6098 0.6233,-0.4076 1.0848,-0.9567 1.3813,-1.6472 0.2965,-0.6874 0.4447,-1.762 0.4447,-3.221 v -5.5185 h -1.3745 v 5.1143 c 0,1.2331 -0.0538,2.0585 -0.1584,2.4729 -0.1684,0.7076 -0.4782,1.2399 -0.9332,1.6002 -0.455,0.3572 -1.0477,0.5357 -1.7787,0.5357 -0.8391,0 -1.5903,-0.276 -2.2507,-0.8288 -0.6636,-0.5491 -1.1016,-1.2331 -1.3105,-2.0483 -0.1312,-0.5324 -0.1987,-1.5027 -0.1987,-2.9143 v -3.9317 h -1.3745 z m 16.6291,3.7803 h 8.0252 V 49.358 h -2.6481 V 37.5732 h -2.8097 V 49.358 h -2.5674 z m 20.3457,-9.9051 h -8.6417 c 0.1247,-0.7648 0.4584,-1.3745 0.9972,-1.8292 0.5392,-0.4516 1.2297,-0.6772 2.0654,-0.6772 1.004,0 1.8632,0.3537 2.584,1.0613 l 2.2572,-1.0681 c -0.5626,-0.8019 -1.2398,-1.3947 -2.0247,-1.7822 -0.7884,-0.3841 -1.7215,-0.5762 -2.8029,-0.5762 -1.6779,0 -3.0459,0.5289 -4.1001,1.5902 -1.0547,1.0579 -1.5837,2.3851 -1.5837,3.9787 0,1.6342 0.529,2.992 1.5837,4.07 1.0542,1.0814 2.3749,1.6203 3.9685,1.6203 1.6881,0 3.0626,-0.5389 4.1202,-1.6135 1.0579,-1.0783 1.5868,-2.4965 1.5868,-4.2653 l -0.01,-0.5088 z m -2.6785,2.1024 c -0.1785,0.5862 -0.5289,1.0644 -1.051,1.4318 -0.5256,0.3671 -1.1319,0.5491 -1.8261,0.5491 -0.7512,0 -1.4083,-0.2055 -1.9777,-0.62 -0.3538,-0.2559 -0.6838,-0.7109 -0.9871,-1.3609 z m 4.8952,8.1664 h 2.6884 v -8.5675 l 3.9756,4.4235 h 3.3587 l -4.5986,-5.1242 5.1783,-5.6095 h -3.3454 l -4.5686,4.949 v -4.949 h -2.6884 z m 11.704,-4.144 h 2.6883 V 47.202 c 0.6098,0.5119 1.1657,0.8657 1.6611,1.0678 0.4953,0.199 1.0038,0.2999 1.5228,0.2999 1.0647,0 1.9709,-0.3705 2.7122,-1.1115 0.6231,-0.6335 0.9363,-1.5667 0.9363,-2.7998 v -7.0852 h -2.6683 v 4.6931 c 0,1.2804 -0.0572,2.1294 -0.1717,2.5472 -0.1146,0.4209 -0.3167,0.741 -0.5996,0.9601 -0.2866,0.2191 -0.6403,0.3302 -1.0579,0.3302 -0.5459,0 -1.0142,-0.182 -1.4051,-0.5459 -0.3906,-0.3637 -0.6602,-0.8691 -0.8118,-1.5092 -0.0774,-0.337 -0.118,-1.0613 -0.118,-2.1764 v -4.2991 h -2.6883 z m 17.1819,0.2628 c 1.0139,0 1.9675,-0.2526 2.8604,-0.758 0.8961,-0.5051 1.59,-1.1891 2.092,-2.0548 0.502,-0.8694 0.7512,-1.8026 0.7512,-2.8066 0,-1.0109 -0.2526,-1.9542 -0.7546,-2.8333 -0.5054,-0.8793 -1.1925,-1.5667 -2.0616,-2.0619 -0.8728,-0.4952 -1.8295,-0.7446 -2.8772,-0.7446 -1.5432,0 -2.8604,0.5459 -3.9487,1.6375 -1.0913,1.0948 -1.6373,2.4222 -1.6373,3.9821 0,1.6745 0.6166,3.0691 1.8496,4.1843 1.0815,0.9703 2.3213,1.4553 3.7262,1.4553 z m 0.0405,-2.5266 c -0.839,0 -1.5364,-0.2897 -2.0922,-0.8693 -0.5559,-0.5828 -0.8357,-1.3241 -0.8357,-2.2303 0,-0.9298 0.2764,-1.6847 0.8255,-2.2604 0.549,-0.5763 1.2466,-0.866 2.0922,-0.866 0.8422,0 1.5429,0.2931 2.1056,0.8759 0.5593,0.5828 0.839,1.334 0.839,2.2505 0,0.9198 -0.2763,1.6645 -0.8254,2.2405 -0.5491,0.5729 -1.2535,0.8591 -2.109,0.8591 z m 7.5668,6.4078 h 2.6884 V 37.5732 h -2.6884 z m 10.1775,-3.8812 c 1.0143,0 1.9676,-0.2526 2.8605,-0.758 0.896,-0.5051 1.5899,-1.1891 2.0919,-2.0548 0.5021,-0.8694 0.7515,-1.8026 0.7515,-2.8066 0,-1.0109 -0.2528,-1.9542 -0.7549,-2.8333 -0.5051,-0.8793 -1.1925,-1.5667 -2.0616,-2.0619 -0.8725,-0.4952 -1.8295,-0.7446 -2.8772,-0.7446 -1.5431,0 -2.8604,0.5459 -3.9483,1.6375 -1.0917,1.0948 -1.6373,2.4222 -1.6373,3.9821 0,1.6745 0.6165,3.0691 1.8496,4.1843 1.0811,0.9703 2.321,1.4553 3.7258,1.4553 z m 0.0406,-2.5266 c -0.8391,0 -1.5364,-0.2897 -2.0923,-0.8693 -0.5559,-0.5828 -0.8356,-1.3241 -0.8356,-2.2303 0,-0.9298 0.2763,-1.6847 0.8254,-2.2604 0.5494,-0.5763 1.2467,-0.866 2.0923,-0.866 0.8424,0 1.5431,0.2931 2.1058,0.8759 0.5593,0.5828 0.8388,1.334 0.8388,2.2505 0,0.9198 -0.2761,1.6645 -0.8255,2.2405 -0.549,0.5729 -1.2531,0.8591 -2.1089,0.8591 z m 9.11,6.6705 c 0.4782,0 0.8858,-0.1683 1.2225,-0.5085 0.3405,-0.3404 0.5089,-0.7515 0.5089,-1.2331 0,-0.4785 -0.1684,-0.8861 -0.5021,-1.2265 -0.3336,-0.3402 -0.7341,-0.5086 -1.2024,-0.5086 -0.4785,0 -0.8861,0.1718 -1.2232,0.5188 -0.3401,0.3469 -0.5088,0.7648 -0.5088,1.2532 0,0.4717 0.1653,0.8728 0.4989,1.2061 0.33,0.3337 0.7311,0.4986 1.2062,0.4986 z m -1.3411,-4.4067 h 2.6884 V 37.2331 c 0,-1.0208 -0.1012,-1.7791 -0.2999,-2.2811 -0.2022,-0.5051 -0.5185,-0.8892 -0.9533,-1.1585 -0.4312,-0.2696 -0.9567,-0.4045 -1.5665,-0.4045 -0.5391,0 -1.2095,0.1349 -2.0114,0.4045 v 2.1257 c 0.4212,-0.2055 0.7917,-0.3067 1.1151,-0.3067 0.3436,0 0.5998,0.1012 0.7716,0.3067 0.1718,0.2021 0.256,0.576 0.256,1.1217 z m 6.4012,4.4067 c 0.4717,0 0.8759,-0.1717 1.2126,-0.5119 0.3402,-0.3404 0.5089,-0.7515 0.5089,-1.2365 0,-0.4785 -0.1687,-0.8861 -0.5021,-1.2231 -0.3333,-0.3368 -0.7344,-0.5052 -1.2027,-0.5052 -0.4782,0 -0.8861,0.1718 -1.2229,0.5154 -0.3404,0.3435 -0.5088,0.7614 -0.5088,1.2532 0,0.4717 0.1684,0.8728 0.502,1.2061 0.3337,0.3337 0.7379,0.502 1.213,0.502 z m -1.351,-4.4067 h 2.6884 V 37.5732 h -2.6884 z m 10.9862,3.7803 h 2.7692 v -9.3895 c 0,-0.8087 0.0709,-1.3816 0.2123,-1.715 0.1415,-0.3367 0.3739,-0.6029 0.7007,-0.805 0.3269,-0.1987 0.7212,-0.2999 1.1792,-0.2999 0.4885,0 0.9063,0.1111 1.26,0.337 0.3538,0.2223 0.5965,0.5052 0.7311,0.8521 0.1349,0.3436 0.2021,1.0041 0.2021,1.9778 v 9.0425 h 2.7695 v -8.6519 c 0,-1.4621 -0.0811,-2.473 -0.2461,-3.0388 -0.165,-0.5658 -0.4785,-1.1117 -0.9434,-1.6373 -0.4614,-0.5255 -0.9969,-0.9164 -1.6035,-1.169 -0.6029,-0.2528 -1.3071,-0.3807 -2.109,-0.3807 -1.0511,0 -1.9675,0.2427 -2.7459,0.7243 -0.7815,0.4853 -1.3374,1.0882 -1.6742,1.8159 -0.3336,0.7279 -0.502,1.9539 -0.502,3.6856 z m 2.7255,3.9617 c 0.3941,0 0.7277,-0.1381 1.0038,-0.4144 0.2764,-0.2761 0.4144,-0.6064 0.4144,-0.9939 0,-0.3974 -0.138,-0.7307 -0.4144,-1.0071 -0.2761,-0.2764 -0.6097,-0.4144 -1.0038,-0.4144 -0.3909,0 -0.7211,0.138 -0.9972,0.4144 -0.2761,0.2764 -0.4144,0.6097 -0.4144,1.0071 0,0.3875 0.1383,0.7178 0.4144,0.9939 0.2761,0.2763 0.6063,0.4144 0.9972,0.4144 z m 4.3662,0 c 0.3943,0 0.7277,-0.1381 1.0041,-0.4144 0.2764,-0.2761 0.4144,-0.6064 0.4144,-0.9939 0,-0.3974 -0.138,-0.7307 -0.4144,-1.0071 -0.2764,-0.2764 -0.6098,-0.4144 -1.0041,-0.4144 -0.3909,0 -0.7208,0.138 -0.9972,0.4144 -0.2764,0.2764 -0.4144,0.6097 -0.4144,1.0071 0,0.3875 0.138,0.7178 0.4144,0.9939 0.2764,0.2763 0.6063,0.4144 0.9972,0.4144 z m 12.2159,-9.2614 -1.6642,-1.6744 c -0.6738,0.6738 -1.2869,1.0108 -1.8394,1.0108 -0.2999,0 -0.5357,-0.064 -0.7075,-0.1919 -0.1721,-0.1281 -0.2563,-0.2866 -0.2563,-0.4751 0,-0.1448 0.0542,-0.2763 0.1619,-0.3977 0.1077,-0.1213 0.3773,-0.2863 0.805,-0.4986 l 0.984,-0.4918 c 1.0377,-0.5088 1.7518,-1.0309 2.1393,-1.5599 0.3875,-0.5323 0.5796,-1.1523 0.5796,-1.8663 0,-0.9502 -0.3503,-1.7453 -1.0513,-2.3786 -0.7008,-0.6366 -1.6407,-0.9535 -2.8199,-0.9535 -1.5631,0 -2.8163,0.61 -3.7497,1.8328 l 1.6611,1.8057 c 0.3166,-0.3671 0.6874,-0.667 1.1152,-0.8926 0.4243,-0.2257 0.8016,-0.3402 1.1318,-0.3402 0.3538,0 0.6435,0.0842 0.8592,0.256 0.2188,0.1718 0.3268,0.3671 0.3268,0.5896 0,0.4141 -0.3909,0.8184 -1.1761,1.2093 l -0.9062,0.4549 c -1.7382,0.8725 -2.6073,1.9641 -2.6073,3.2746 0,0.8456 0.3268,1.5701 0.9802,2.1696 0.6537,0.5996 1.4891,0.8995 2.5064,0.8995 0.6976,0 1.351,-0.1551 1.9678,-0.4615 0.6132,-0.3067 1.1319,-0.7478 1.5596,-1.3207 z m 8.8943,0 -1.6642,-1.6744 c -0.6738,0.6738 -1.2869,1.0108 -1.8394,1.0108 -0.2999,0 -0.5358,-0.064 -0.7075,-0.1919 -0.1721,-0.1281 -0.2563,-0.2866 -0.2563,-0.4751 0,-0.1448 0.0539,-0.2763 0.1619,-0.3977 0.1077,-0.1213 0.3773,-0.2863 0.805,-0.4986 l 0.9839,-0.4918 c 1.0378,-0.5088 1.7518,-1.0309 2.1393,-1.5599 0.3875,-0.5323 0.5797,-1.1523 0.5797,-1.8663 0,-0.9502 -0.3506,-1.7453 -1.0514,-2.3786 -0.7007,-0.6366 -1.6407,-0.9535 -2.8199,-0.9535 -1.563,0 -2.8162,0.61 -3.7496,1.8328 l 1.6611,1.8057 c 0.3166,-0.3671 0.6874,-0.667 1.1151,-0.8926 0.4244,-0.2257 0.8017,-0.3402 1.1319,-0.3402 0.3538,0 0.6435,0.0842 0.8592,0.256 0.2188,0.1718 0.3265,0.3671 0.3265,0.5896 0,0.4141 -0.3906,0.8184 -1.1758,1.2093 l -0.9062,0.4549 c -1.7382,0.8725 -2.6073,1.9641 -2.6073,3.2746 0,0.8456 0.3265,1.5701 0.9802,2.1696 0.6537,0.5996 1.489,0.8995 2.5064,0.8995 0.6976,0 1.351,-0.1551 1.9675,-0.4615 0.6134,-0.3067 1.1322,-0.7478 1.5599,-1.3207 z m 2.3247,1.5194 h 2.7289 v -5.1613 c 0,-1.0041 0.0709,-1.7014 0.2089,-2.0923 0.1381,-0.3906 0.3606,-0.6936 0.667,-0.9127 0.3067,-0.2157 0.6874,-0.3235 1.1356,-0.3235 0.4479,0 0.832,0.1078 1.1455,0.3201 0.3132,0.2123 0.5456,0.5255 0.6973,0.9399 0.1111,0.3099 0.1684,0.9703 0.1684,1.9809 v 5.2489 h 2.6883 v -4.5414 c 0,-1.8731 -0.1482,-3.1532 -0.4447,-3.8438 -0.3603,-0.8424 -0.896,-1.4859 -1.6002,-1.9374 -0.7041,-0.4479 -1.6001,-0.6738 -2.6849,-0.6738 -1.1793,0 -2.1294,0.2627 -2.8571,0.7886 -0.7276,0.5255 -1.2396,1.2566 -1.5361,2.1965 -0.2123,0.65 -0.3169,1.8326 -0.3169,3.5476 z m 2.5639,4.7908 c 0.3941,0 0.7277,-0.138 1.0038,-0.4144 0.2764,-0.2761 0.4144,-0.6063 0.4144,-0.9938 0,-0.3974 -0.138,-0.7311 -0.4144,-1.0075 -0.2761,-0.276 -0.6097,-0.4144 -1.0038,-0.4144 -0.3909,0 -0.7208,0.1384 -0.9972,0.4144 -0.2761,0.2764 -0.4144,0.6101 -0.4144,1.0075 0,0.3875 0.1383,0.7177 0.4144,0.9938 0.2764,0.2764 0.6063,0.4144 0.9972,0.4144 z m 4.3663,0 c 0.3943,0 0.7276,-0.138 1.004,-0.4144 0.2764,-0.2761 0.4144,-0.6063 0.4144,-0.9938 0,-0.3974 -0.138,-0.7311 -0.4144,-1.0075 -0.2764,-0.276 -0.6097,-0.4144 -1.004,-0.4144 -0.3909,0 -0.7209,0.1384 -0.9973,0.4144 -0.2764,0.2764 -0.4144,0.6101 -0.4144,1.0075 0,0.3875 0.138,0.7177 0.4144,0.9938 0.2764,0.2764 0.6064,0.4144 0.9973,0.4144" /></g></svg>